<?xml version="1.0" encoding="utf-8"?>
<!-- Generator: Adobe Illustrator 24.0.1, SVG Export Plug-In . SVG Version: 6.00 Build 0)  -->
<svg version="1.1" id="Capa_1" xmlns="http://www.w3.org/2000/svg" xmlns:xlink="http://www.w3.org/1999/xlink" x="0px" y="0px"
	 viewBox="0 0 512 512" style="enable-background:new 0 0 512 512;" xml:space="preserve">
<path d="M256,0C156.7,0,76,80.7,76,180c0,33.6,9.3,66.3,27,94.5l140.8,230.4c2.4,3.9,6,6.3,10.2,6.9c5.7,0.9,12-1.5,15.3-7.2
	l141.2-232.5c16.8-27.6,25.5-59.7,25.5-92.1C436,80.7,355.3,0,256,0z M256,270c-50.4,0-90-40.8-90-90c0-49.5,40.5-90,90-90
	s90,40.5,90,90C346,228.9,307,270,256,270z"/>
</svg>
