<svg id="Capa_1" enable-background="new 0 0 512 512" height="512" viewBox="0 0 512 512" width="512" xmlns="http://www.w3.org/2000/svg"><g><path d="m445.799 116.438h10.587c7.13 0 13.271-5.026 14.68-12.016 1.409-6.989-2.304-14.002-8.876-16.766l-142.618-59.958c-13.942-16.904-35.04-27.698-58.612-27.698-41.882 0-75.956 34.073-75.956 75.956 0 18.507 6.545 35.933 18.557 49.735v63.261c-108.595 3.191-195.957 92.527-195.957 201.881 0 8.271 6.705 14.976 14.976 14.976h73.045c27.791 0 54.288-5.644 78.408-15.843v107.058c0 8.271 6.705 14.976 14.976 14.976h29.213c8.271 0 14.976-6.705 14.976-14.976s-6.705-14.976-14.976-14.976h-14.238v-32.365h14.238c8.271 0 14.976-6.705 14.976-14.976s-6.705-14.976-14.976-14.976h-14.238v-45.523c56.239-35.895 93.61-98.849 93.61-170.371v-61.357c11.323-6.267 20.744-15.31 27.526-26.044h81.701c-16.379 32.117-58.597 119.717-58.597 169.331 0 30.899 6.858 59.583 19.309 80.769 14.288 24.311 35.162 37.7 58.777 37.7s44.489-13.389 58.777-37.7c12.451-21.186 19.309-49.87 19.309-80.769 0-49.612-42.219-137.212-58.597-169.329zm-168.502 2.526c-5.812 2.21-9.654 7.781-9.654 13.999v70.877c0 94.852-77.167 172.018-172.018 172.018h-57.424c7.609-87.87 81.564-157.043 171.373-157.043h8.963c8.271 0 14.976-6.705 14.976-14.976v-84.1c0-4.053-1.643-7.933-4.554-10.754-9.03-8.751-14.004-20.482-14.004-33.029 0-25.367 20.637-46.004 46.004-46.004s46.005 20.637 46.005 46.004c.001 18.978-11.922 36.263-29.667 43.008zm58.87-32.478c.492-3.46.749-6.977.749-10.531 0-2.94-.185-5.836-.512-8.69l45.719 19.221zm90.143 287.801c-27.441 0-48.135-38.054-48.135-88.518 0-21.306 10.454-56.729 30.233-102.439 6.286-14.529 12.613-27.976 17.902-38.812 5.26 10.775 11.549 24.141 17.812 38.606 19.837 45.81 30.322 81.304 30.322 102.645.001 50.463-20.693 88.518-48.134 88.518z"/><circle cx="272.856" cy="74.172" r="15.117"/></g></svg>